<mxfile host="app.diagrams.net" modified="2024-06-20T09:55:52.987Z" agent="Mozilla/5.0 (Windows NT 10.0; Win64; x64) AppleWebKit/537.36 (KHTML, like Gecko) Chrome/126.0.0.0 Safari/537.36" etag="A9NmdFtfCLQO6CmRyVJo" version="24.5.5" type="device">
  <diagram name="Page-1" id="OTOzu0eG6plXs4YGY3is">
    <mxGraphModel dx="280" dy="159" grid="0" gridSize="10" guides="1" tooltips="1" connect="1" arrows="1" fold="1" page="0" pageScale="1" pageWidth="1100" pageHeight="1700" math="0" shadow="0">
      <root>
        <mxCell id="0" />
        <mxCell id="1" parent="0" />
        <mxCell id="X1KxFXlsTexJpobBfIu2-1" value="" style="shape=image;verticalLabelPosition=bottom;labelBackgroundColor=default;verticalAlign=top;aspect=fixed;imageAspect=0;image=https://i.pinimg.com/originals/df/3b/ef/df3bef31cf21abc2d4c456756e926058.png;opacity=30;" vertex="1" parent="1">
          <mxGeometry x="530" y="480" width="710.53" height="360" as="geometry" />
        </mxCell>
        <mxCell id="X1KxFXlsTexJpobBfIu2-2" value="" style="ellipse;whiteSpace=wrap;html=1;aspect=fixed;fillColor=#d5e8d4;strokeColor=#82b366;" vertex="1" parent="1">
          <mxGeometry x="680" y="550" width="20" height="20" as="geometry" />
        </mxCell>
        <mxCell id="X1KxFXlsTexJpobBfIu2-3" value="" style="ellipse;whiteSpace=wrap;html=1;aspect=fixed;fillColor=#d5e8d4;strokeColor=#82b366;" vertex="1" parent="1">
          <mxGeometry x="830" y="530" width="20" height="20" as="geometry" />
        </mxCell>
        <mxCell id="X1KxFXlsTexJpobBfIu2-4" value="" style="ellipse;whiteSpace=wrap;html=1;aspect=fixed;fillColor=#d5e8d4;strokeColor=#82b366;" vertex="1" parent="1">
          <mxGeometry x="830" y="570" width="20" height="20" as="geometry" />
        </mxCell>
        <mxCell id="X1KxFXlsTexJpobBfIu2-5" value="" style="ellipse;whiteSpace=wrap;html=1;aspect=fixed;fillColor=#d5e8d4;strokeColor=#82b366;" vertex="1" parent="1">
          <mxGeometry x="890" y="570" width="20" height="20" as="geometry" />
        </mxCell>
        <mxCell id="X1KxFXlsTexJpobBfIu2-6" value="" style="ellipse;whiteSpace=wrap;html=1;aspect=fixed;fillColor=#d5e8d4;strokeColor=#82b366;" vertex="1" parent="1">
          <mxGeometry x="870" y="520" width="20" height="20" as="geometry" />
        </mxCell>
        <mxCell id="X1KxFXlsTexJpobBfIu2-7" value="" style="ellipse;whiteSpace=wrap;html=1;aspect=fixed;fillColor=#d5e8d4;strokeColor=#82b366;" vertex="1" parent="1">
          <mxGeometry x="1050" y="580" width="20" height="20" as="geometry" />
        </mxCell>
        <mxCell id="X1KxFXlsTexJpobBfIu2-8" value="" style="ellipse;whiteSpace=wrap;html=1;aspect=fixed;fillColor=#d5e8d4;strokeColor=#82b366;" vertex="1" parent="1">
          <mxGeometry x="1120" y="750" width="20" height="20" as="geometry" />
        </mxCell>
        <mxCell id="X1KxFXlsTexJpobBfIu2-9" value="" style="ellipse;whiteSpace=wrap;html=1;aspect=fixed;fillColor=#d5e8d4;strokeColor=#82b366;" vertex="1" parent="1">
          <mxGeometry x="690" y="680" width="20" height="20" as="geometry" />
        </mxCell>
        <mxCell id="X1KxFXlsTexJpobBfIu2-10" value="" style="ellipse;whiteSpace=wrap;html=1;aspect=fixed;fillColor=#d5e8d4;strokeColor=#82b366;" vertex="1" parent="1">
          <mxGeometry x="590" y="570" width="20" height="20" as="geometry" />
        </mxCell>
        <mxCell id="X1KxFXlsTexJpobBfIu2-11" value="" style="ellipse;whiteSpace=wrap;html=1;aspect=fixed;fillColor=#d5e8d4;strokeColor=#82b366;" vertex="1" parent="1">
          <mxGeometry x="870" y="610" width="20" height="20" as="geometry" />
        </mxCell>
        <mxCell id="X1KxFXlsTexJpobBfIu2-12" value="" style="endArrow=classic;html=1;rounded=0;exitX=0;exitY=1;exitDx=0;exitDy=0;entryX=1;entryY=0;entryDx=0;entryDy=0;" edge="1" parent="1" source="X1KxFXlsTexJpobBfIu2-3" target="X1KxFXlsTexJpobBfIu2-9">
          <mxGeometry width="50" height="50" relative="1" as="geometry">
            <mxPoint x="880" y="720" as="sourcePoint" />
            <mxPoint x="930" y="670" as="targetPoint" />
          </mxGeometry>
        </mxCell>
        <mxCell id="X1KxFXlsTexJpobBfIu2-13" value="40ms" style="text;html=1;align=center;verticalAlign=middle;whiteSpace=wrap;rounded=0;" vertex="1" parent="1">
          <mxGeometry x="730" y="590" width="60" height="30" as="geometry" />
        </mxCell>
        <mxCell id="X1KxFXlsTexJpobBfIu2-14" value="" style="endArrow=classic;html=1;rounded=0;exitX=1;exitY=1;exitDx=0;exitDy=0;entryX=0;entryY=0;entryDx=0;entryDy=0;" edge="1" parent="1" source="X1KxFXlsTexJpobBfIu2-3" target="X1KxFXlsTexJpobBfIu2-5">
          <mxGeometry width="50" height="50" relative="1" as="geometry">
            <mxPoint x="843" y="557" as="sourcePoint" />
            <mxPoint x="717" y="693" as="targetPoint" />
          </mxGeometry>
        </mxCell>
        <mxCell id="X1KxFXlsTexJpobBfIu2-15" value="10ms" style="text;html=1;align=center;verticalAlign=middle;whiteSpace=wrap;rounded=0;" vertex="1" parent="1">
          <mxGeometry x="855.27" y="540" width="60" height="30" as="geometry" />
        </mxCell>
        <mxCell id="X1KxFXlsTexJpobBfIu2-16" value="" style="ellipse;whiteSpace=wrap;html=1;aspect=fixed;fillColor=#e1d5e7;strokeColor=#9673a6;" vertex="1" parent="1">
          <mxGeometry x="670" y="720" width="10" height="10" as="geometry" />
        </mxCell>
        <mxCell id="X1KxFXlsTexJpobBfIu2-17" value="" style="ellipse;whiteSpace=wrap;html=1;aspect=fixed;fillColor=#e1d5e7;strokeColor=#9673a6;" vertex="1" parent="1">
          <mxGeometry x="685" y="770" width="10" height="10" as="geometry" />
        </mxCell>
        <mxCell id="X1KxFXlsTexJpobBfIu2-18" value="" style="ellipse;whiteSpace=wrap;html=1;aspect=fixed;fillColor=#e1d5e7;strokeColor=#9673a6;" vertex="1" parent="1">
          <mxGeometry x="710" y="770" width="10" height="10" as="geometry" />
        </mxCell>
        <mxCell id="X1KxFXlsTexJpobBfIu2-19" value="" style="ellipse;whiteSpace=wrap;html=1;aspect=fixed;fillColor=#e1d5e7;strokeColor=#9673a6;" vertex="1" parent="1">
          <mxGeometry x="730" y="750" width="10" height="10" as="geometry" />
        </mxCell>
        <mxCell id="X1KxFXlsTexJpobBfIu2-20" value="" style="ellipse;whiteSpace=wrap;html=1;aspect=fixed;fillColor=#e1d5e7;strokeColor=#9673a6;" vertex="1" parent="1">
          <mxGeometry x="695" y="750" width="10" height="10" as="geometry" />
        </mxCell>
        <mxCell id="X1KxFXlsTexJpobBfIu2-21" value="" style="ellipse;whiteSpace=wrap;html=1;aspect=fixed;fillColor=#e1d5e7;strokeColor=#9673a6;" vertex="1" parent="1">
          <mxGeometry x="740" y="730" width="10" height="10" as="geometry" />
        </mxCell>
        <mxCell id="X1KxFXlsTexJpobBfIu2-22" value="" style="ellipse;whiteSpace=wrap;html=1;aspect=fixed;fillColor=#e1d5e7;strokeColor=#9673a6;" vertex="1" parent="1">
          <mxGeometry x="670" y="655" width="10" height="10" as="geometry" />
        </mxCell>
        <mxCell id="X1KxFXlsTexJpobBfIu2-23" value="" style="ellipse;whiteSpace=wrap;html=1;aspect=fixed;fillColor=#e1d5e7;strokeColor=#9673a6;" vertex="1" parent="1">
          <mxGeometry x="650" y="690" width="10" height="10" as="geometry" />
        </mxCell>
        <mxCell id="X1KxFXlsTexJpobBfIu2-24" value="" style="ellipse;whiteSpace=wrap;html=1;aspect=fixed;fillColor=#e1d5e7;strokeColor=#9673a6;" vertex="1" parent="1">
          <mxGeometry x="730" y="695" width="10" height="10" as="geometry" />
        </mxCell>
        <mxCell id="X1KxFXlsTexJpobBfIu2-25" value="" style="ellipse;whiteSpace=wrap;html=1;aspect=fixed;fillColor=#e1d5e7;strokeColor=#9673a6;" vertex="1" parent="1">
          <mxGeometry x="695" y="655" width="10" height="10" as="geometry" />
        </mxCell>
        <mxCell id="X1KxFXlsTexJpobBfIu2-26" value="" style="endArrow=classic;html=1;rounded=0;strokeWidth=0;exitX=0;exitY=0.5;exitDx=0;exitDy=0;entryX=1;entryY=0.5;entryDx=0;entryDy=0;" edge="1" parent="1" source="X1KxFXlsTexJpobBfIu2-9" target="X1KxFXlsTexJpobBfIu2-23">
          <mxGeometry width="50" height="50" relative="1" as="geometry">
            <mxPoint x="750" y="740" as="sourcePoint" />
            <mxPoint x="800" y="690" as="targetPoint" />
          </mxGeometry>
        </mxCell>
        <mxCell id="X1KxFXlsTexJpobBfIu2-27" value="" style="endArrow=classic;html=1;rounded=0;strokeWidth=0;exitX=0;exitY=0;exitDx=0;exitDy=0;entryX=0.827;entryY=1.023;entryDx=0;entryDy=0;entryPerimeter=0;" edge="1" parent="1" source="X1KxFXlsTexJpobBfIu2-9" target="X1KxFXlsTexJpobBfIu2-22">
          <mxGeometry width="50" height="50" relative="1" as="geometry">
            <mxPoint x="700" y="700" as="sourcePoint" />
            <mxPoint x="670" y="705" as="targetPoint" />
          </mxGeometry>
        </mxCell>
        <mxCell id="X1KxFXlsTexJpobBfIu2-28" value="" style="endArrow=classic;html=1;rounded=0;strokeWidth=0;exitX=0.5;exitY=0;exitDx=0;exitDy=0;entryX=0.5;entryY=1;entryDx=0;entryDy=0;" edge="1" parent="1" source="X1KxFXlsTexJpobBfIu2-9" target="X1KxFXlsTexJpobBfIu2-25">
          <mxGeometry width="50" height="50" relative="1" as="geometry">
            <mxPoint x="703" y="693" as="sourcePoint" />
            <mxPoint x="688" y="675" as="targetPoint" />
          </mxGeometry>
        </mxCell>
        <mxCell id="X1KxFXlsTexJpobBfIu2-29" value="" style="endArrow=classic;html=1;rounded=0;strokeWidth=0;exitX=0.5;exitY=0;exitDx=0;exitDy=0;entryX=0.009;entryY=0.332;entryDx=0;entryDy=0;entryPerimeter=0;" edge="1" parent="1" target="X1KxFXlsTexJpobBfIu2-24">
          <mxGeometry width="50" height="50" relative="1" as="geometry">
            <mxPoint x="710" y="690" as="sourcePoint" />
            <mxPoint x="710" y="675" as="targetPoint" />
          </mxGeometry>
        </mxCell>
        <mxCell id="X1KxFXlsTexJpobBfIu2-30" value="" style="endArrow=classic;html=1;rounded=0;strokeWidth=0;exitX=0;exitY=1;exitDx=0;exitDy=0;entryX=0.755;entryY=-0.041;entryDx=0;entryDy=0;entryPerimeter=0;" edge="1" parent="1" source="X1KxFXlsTexJpobBfIu2-9" target="X1KxFXlsTexJpobBfIu2-16">
          <mxGeometry width="50" height="50" relative="1" as="geometry">
            <mxPoint x="720" y="700" as="sourcePoint" />
            <mxPoint x="720" y="685" as="targetPoint" />
          </mxGeometry>
        </mxCell>
        <mxCell id="X1KxFXlsTexJpobBfIu2-31" value="" style="endArrow=classic;html=1;rounded=0;strokeWidth=0;exitX=0.286;exitY=0.989;exitDx=0;exitDy=0;entryX=0.5;entryY=0;entryDx=0;entryDy=0;exitPerimeter=0;" edge="1" parent="1" source="X1KxFXlsTexJpobBfIu2-9" target="X1KxFXlsTexJpobBfIu2-17">
          <mxGeometry width="50" height="50" relative="1" as="geometry">
            <mxPoint x="703" y="707" as="sourcePoint" />
            <mxPoint x="688" y="730" as="targetPoint" />
          </mxGeometry>
        </mxCell>
        <mxCell id="X1KxFXlsTexJpobBfIu2-32" value="" style="endArrow=classic;html=1;rounded=0;strokeWidth=0;exitX=0.5;exitY=1;exitDx=0;exitDy=0;entryX=0.5;entryY=0;entryDx=0;entryDy=0;" edge="1" parent="1" source="X1KxFXlsTexJpobBfIu2-9" target="X1KxFXlsTexJpobBfIu2-20">
          <mxGeometry width="50" height="50" relative="1" as="geometry">
            <mxPoint x="713" y="717" as="sourcePoint" />
            <mxPoint x="698" y="740" as="targetPoint" />
          </mxGeometry>
        </mxCell>
        <mxCell id="X1KxFXlsTexJpobBfIu2-33" value="" style="endArrow=classic;html=1;rounded=0;strokeWidth=0;exitX=0.777;exitY=0.916;exitDx=0;exitDy=0;entryX=0.5;entryY=0;entryDx=0;entryDy=0;exitPerimeter=0;" edge="1" parent="1" source="X1KxFXlsTexJpobBfIu2-9" target="X1KxFXlsTexJpobBfIu2-18">
          <mxGeometry width="50" height="50" relative="1" as="geometry">
            <mxPoint x="710" y="710" as="sourcePoint" />
            <mxPoint x="710" y="760" as="targetPoint" />
          </mxGeometry>
        </mxCell>
        <mxCell id="X1KxFXlsTexJpobBfIu2-34" value="" style="endArrow=classic;html=1;rounded=0;strokeWidth=0;exitX=1;exitY=1;exitDx=0;exitDy=0;entryX=0;entryY=0;entryDx=0;entryDy=0;" edge="1" parent="1" source="X1KxFXlsTexJpobBfIu2-9" target="X1KxFXlsTexJpobBfIu2-19">
          <mxGeometry width="50" height="50" relative="1" as="geometry">
            <mxPoint x="716" y="708" as="sourcePoint" />
            <mxPoint x="725" y="780" as="targetPoint" />
          </mxGeometry>
        </mxCell>
        <mxCell id="X1KxFXlsTexJpobBfIu2-35" value="" style="endArrow=classic;html=1;rounded=0;strokeWidth=0;exitX=0.941;exitY=0.734;exitDx=0;exitDy=0;entryX=0.009;entryY=0.141;entryDx=0;entryDy=0;exitPerimeter=0;entryPerimeter=0;" edge="1" parent="1" source="X1KxFXlsTexJpobBfIu2-9" target="X1KxFXlsTexJpobBfIu2-21">
          <mxGeometry width="50" height="50" relative="1" as="geometry">
            <mxPoint x="717" y="707" as="sourcePoint" />
            <mxPoint x="741" y="761" as="targetPoint" />
          </mxGeometry>
        </mxCell>
      </root>
    </mxGraphModel>
  </diagram>
</mxfile>
